<?xml version="1.0" encoding="UTF-8"?> <!-- Generator: Adobe Illustrator 25.3.1, SVG Export Plug-In . SVG Version: 6.00 Build 0) --> <svg xmlns="http://www.w3.org/2000/svg" xmlns:xlink="http://www.w3.org/1999/xlink" version="1.1" id="Layer_1" x="0px" y="0px" viewBox="0 0 614.2 185.3" style="enable-background:new 0 0 614.2 185.3;" xml:space="preserve"> <style type="text/css"> .st0{fill:#AF1F24;} .st1{fill:#FFFFFF;} .st2{fill:#2B1978;} </style> <rect x="363.8" y="48.7" class="st0" width="244.4" height="56.8"></rect> <path class="st1" d="M373.2,98.2v-42h15.7c3.1-0.1,6.2,0.5,9.1,1.7c5,2,8.8,6.1,10.5,11.2c0.9,2.6,1.4,5.4,1.3,8.2 c0,3-0.5,5.9-1.5,8.7c-0.9,2.5-2.4,4.7-4.2,6.6c-1.9,1.9-4.1,3.3-6.6,4.3c-2.8,1-5.7,1.5-8.6,1.5L373.2,98.2z M400,77.2 c0-1.7-0.2-3.4-0.8-5.1c-0.4-1.4-1.2-2.8-2.2-3.9s-2.1-2-3.5-2.6c-1.5-0.6-3.1-0.9-4.7-0.9h-6v25h6c1.6,0,3.3-0.3,4.7-1 c1.3-0.6,2.5-1.5,3.5-2.6c1-1.2,1.7-2.5,2.1-4C399.8,80.5,400,78.8,400,77.2z"></path> <path class="st1" d="M413.9,98.2l16.2-42.1h7.9l16.1,42.1h-10.3l-3.3-9.4h-13.1l-3.2,9.4H413.9z M434,66.5l-5,15.6h9.9L434,66.5z"></path> <path class="st1" d="M465.2,56.2l9.1,19.3l9.2-19.3H494l-14.9,27.7v14.3h-9.7V83.8l-14.7-27.6C454.7,56.2,465.2,56.2,465.2,56.2z"></path> <path class="st1" d="M538.5,98.6c-2.8,0-5.6-0.6-8.2-1.8c-2.4-1.2-4.5-2.8-6.3-4.8s-3.2-4.3-4.1-6.8c-1-2.5-1.5-5.2-1.5-7.9 c0-5.5,2-10.7,5.7-14.8c1.8-2,4-3.6,6.4-4.7c2.5-1.2,5.3-1.8,8.1-1.8s5.6,0.6,8.2,1.8c2.4,1.2,4.5,2.8,6.3,4.9 c1.8,2,3.1,4.4,4.1,6.9c0.9,2.5,1.4,5.2,1.4,7.8c0,2.7-0.5,5.5-1.5,8s-2.4,4.8-4.2,6.8s-4,3.6-6.4,4.7C544,98,541.3,98.6,538.5,98.6 z M528.3,77.3c0,1.6,0.2,3.2,0.7,4.7c0.4,1.4,1.1,2.8,2,4c0.8,1.2,1.9,2.2,3.2,2.8c1.3,0.8,2.9,1.1,4.4,1.2c1.5,0,3.1-0.4,4.4-1.2 c1.3-0.7,2.3-1.7,3.2-2.9c0.9-1.2,1.5-2.6,1.9-4.1s0.6-3.1,0.6-4.7s-0.2-3.2-0.7-4.7c-0.4-1.4-1.1-2.8-2-4s-1.9-2.1-3.2-2.8 c-1.3-0.7-2.8-1-4.3-1c-1.6,0-3.1,0.3-4.5,1.1c-1.3,0.7-2.3,1.7-3.2,2.9c-0.8,1.2-1.5,2.6-1.9,4C528.6,74.1,528.3,75.7,528.3,77.3z"></path> <path class="st1" d="M569,98.2v-42h28.6v8.5h-18.8v9.1h15.5v7.9h-15.5v16.6L569,98.2L569,98.2z"></path> <rect x="7.3" y="115.3" class="st0" width="508.6" height="56.8"></rect> <path class="st1" d="M16.9,143.5c0-2.6,0.5-5.1,1.4-7.6s2.3-4.8,4-6.7c1.8-2,3.9-3.6,6.4-4.8c2.7-1.3,5.6-1.9,8.6-1.8 c3.4-0.1,6.8,0.8,9.8,2.6c2.6,1.6,4.8,3.9,6.2,6.6l-7.5,5.2c-0.4-1-0.9-2-1.7-2.8c-0.6-0.7-1.4-1.3-2.2-1.8 c-0.8-0.4-1.6-0.8-2.5-0.9c-0.8-0.2-1.6-0.3-2.4-0.3c-1.6,0-3.1,0.4-4.5,1.1c-1.2,0.7-2.3,1.7-3.1,2.9c-0.8,1.2-1.5,2.6-1.9,4 c-0.4,1.5-0.6,3-0.6,4.6s0.2,3.3,0.7,4.8s1.2,2.8,2.1,4.1c0.9,1.2,2,2.1,3.2,2.8c1.3,0.7,2.7,1,4.2,1c0.8,0,1.7-0.1,2.5-0.3 c0.9-0.2,1.7-0.6,2.5-1c0.8-0.5,1.5-1.1,2.1-1.8c0.7-0.8,1.2-1.7,1.5-2.7l8,4.7c-0.6,1.5-1.6,3-2.8,4.1c-1.2,1.2-2.6,2.3-4.1,3.1 s-3.2,1.5-4.9,1.9s-3.4,0.7-5.1,0.7c-2.8,0-5.5-0.6-8-1.9c-2.4-1.2-4.5-2.9-6.3-4.9c-1.8-2.1-3.2-4.4-4.1-7 C17.5,148.9,16.9,146.2,16.9,143.5z"></path> <path class="st1" d="M63.4,164.9v-42.1h9.7v42.1H63.4z"></path> <path class="st1" d="M93.1,122.8l10,29.9l9.8-29.9H123l-16,42.1h-8.1l-16.1-42.1C82.8,122.8,93.1,122.8,93.1,122.8z"></path> <path class="st1" d="M132.8,164.9v-42.1h9.7v42.1H132.8z"></path> <path class="st1" d="M151.7,143.5c0-2.6,0.5-5.1,1.4-7.6s2.3-4.7,4-6.7c1.8-2,3.9-3.6,6.4-4.8c2.7-1.3,5.6-1.9,8.6-1.8 c3.4-0.1,6.8,0.8,9.8,2.6c2.7,1.6,4.8,3.9,6.2,6.6l-7.5,5.2c-0.4-1-0.9-1.9-1.7-2.8c-0.6-0.7-1.4-1.3-2.2-1.8 c-0.8-0.4-1.6-0.8-2.5-0.9c-0.8-0.2-1.6-0.3-2.4-0.3c-1.6,0-3.1,0.4-4.5,1.1c-1.2,0.7-2.3,1.7-3.1,2.9s-1.5,2.6-1.9,4 c-0.4,1.5-0.6,3-0.6,4.6s0.2,3.3,0.7,4.8s1.2,2.8,2.1,4.1c0.9,1.2,2,2.1,3.2,2.8c1.3,0.7,2.7,1,4.2,1c1.7,0,3.4-0.5,4.9-1.3 c0.8-0.5,1.5-1.1,2.1-1.8c0.7-0.8,1.2-1.7,1.5-2.7l8,4.7c-0.6,1.6-1.6,3-2.8,4.1c-1.2,1.2-2.6,2.3-4.1,3.1s-3.2,1.5-4.9,1.9 s-3.4,0.7-5.1,0.7c-2.8,0-5.5-0.6-8-1.9c-2.4-1.2-4.5-2.9-6.3-4.9c-1.8-2.1-3.2-4.4-4.1-7C152.2,148.9,151.7,146.2,151.7,143.5z"></path> <path class="st1" d="M252.9,122.8v42.1h-9.7v-17.2h-16.8v17.2h-9.7v-42.1h9.7v16.3h16.8v-16.3L252.9,122.8L252.9,122.8z"></path> <path class="st1" d="M260.4,164.9l16.2-42.1h7.9l16.1,42.1h-10.3l-3.2-9.4H274l-3.2,9.4H260.4z M280.5,133.1l-5,15.6h9.9 L280.5,133.1z"></path> <path class="st1" d="M305.5,143.5c0-2.6,0.5-5.1,1.4-7.6s2.3-4.8,4-6.7c1.8-2,3.9-3.6,6.4-4.8c2.7-1.3,5.6-1.9,8.6-1.8 c3.4-0.1,6.8,0.8,9.8,2.6c2.7,1.6,4.8,3.9,6.2,6.6l-7.5,5.2c-0.4-1-0.9-1.9-1.7-2.8c-0.6-0.7-1.4-1.3-2.2-1.8 c-0.8-0.4-1.6-0.8-2.5-0.9c-0.8-0.2-1.6-0.3-2.4-0.3c-1.6,0-3.1,0.4-4.5,1.1c-1.2,0.7-2.3,1.7-3.1,2.9c-0.8,1.2-1.5,2.6-1.9,4 c-0.4,1.5-0.6,3-0.6,4.6s0.2,3.3,0.7,4.8s1.2,2.8,2.1,4.1c0.9,1.2,2,2.1,3.2,2.8c1.3,0.7,2.7,1,4.2,1c0.8,0,1.7-0.1,2.5-0.3 c0.9-0.2,1.7-0.6,2.5-1c0.8-0.5,1.5-1.1,2.1-1.8c0.7-0.8,1.2-1.7,1.5-2.7l8,4.7c-0.6,1.5-1.6,3-2.8,4.1c-1.2,1.2-2.6,2.3-4.1,3.1 s-3.2,1.5-4.9,1.9c-1.7,0.4-3.4,0.7-5.1,0.7c-2.8,0-5.5-0.6-8-1.9c-2.4-1.2-4.5-2.9-6.3-4.9c-1.8-2.1-3.2-4.4-4.1-7 C306.1,148.9,305.5,146.2,305.5,143.5z"></path> <path class="st1" d="M352,164.9v-42.1h9.7v19l16.2-19h10l-15.8,18.8l16.8,23.3h-10.2l-12.3-17.8l-4.8,5.2v12.6H352z"></path> <path class="st1" d="M398,164.9v-42.1h9.7v42.1H398z"></path> <path class="st1" d="M430.2,140.8v24.1h-9.7v-42.1h7.6l19.6,24.7v-24.7h9.7v42.1h-7.8L430.2,140.8z"></path> <path class="st1" d="M497.5,160.8c-1.4,1.4-3,2.5-4.8,3.3c-1.7,0.7-3.6,1.1-5.5,1.1c-2.6,0-5.2-0.6-7.5-1.8s-4.4-2.8-6.2-4.7 c-1.8-2-3.2-4.4-4.2-6.9c-1-2.6-1.5-5.4-1.5-8.2s0.5-5.6,1.5-8.2c1-2.5,2.4-4.8,4.3-6.7c1.8-1.9,4-3.4,6.4-4.5 c5.7-2.5,12.2-2.2,17.7,0.8c2.7,1.6,4.9,3.9,6.3,6.7l-7.3,5.4c-0.8-1.8-2.1-3.3-3.8-4.4c-1.6-1-3.4-1.6-5.3-1.6 c-1.4,0-2.8,0.3-4.1,1c-1.2,0.7-2.3,1.6-3.1,2.7c-0.9,1.2-1.6,2.6-2,4.1c-0.5,1.6-0.7,3.3-0.7,5s0.2,3.4,0.8,5 c0.5,1.4,1.2,2.8,2.1,4c0.9,1.1,2,2,3.3,2.6s2.7,1,4.1,0.9c1.7,0,3.5-0.4,5-1.3c1.7-1,3.2-2.3,4.4-3.9V150h-8.1v-7.1h16.2v22h-8.1 v-4.1L497.5,160.8L497.5,160.8z"></path> <rect x="7.3" y="48.7" class="st2" width="345.6" height="56.8"></rect> <path class="st1" d="M26.5,74.1v24h-9.7V56h7.6L44,80.8V56h9.7v42.1h-7.8L26.5,74.1z"></path> <path class="st1" d="M62.4,98.1L78.6,56h7.9l16.1,42.1H92.2L89,88.7H75.9l-3.2,9.4H62.4z M82.5,66.4l-5,15.6h9.9L82.5,66.4z"></path> <path class="st1" d="M139.6,64.6h-12.8v33.5h-9.7V64.6h-12.9V56h35.4V64.6z"></path> <path class="st1" d="M149.2,98.1V56h9.7v42.1H149.2z"></path> <path class="st1" d="M189.4,98.5c-2.8,0-5.6-0.6-8.2-1.8c-2.4-1.2-4.5-2.8-6.3-4.8s-3.2-4.3-4.1-6.8c-1-2.6-1.5-5.3-1.4-8 c0-5.5,2-10.7,5.7-14.8c1.8-2,4-3.5,6.4-4.7c2.5-1.2,5.3-1.8,8.1-1.7c2.8,0,5.6,0.6,8.2,1.8c2.4,1.2,4.5,2.9,6.3,4.9 c1.8,2,3.1,4.4,4.1,6.9c0.9,2.5,1.4,5.2,1.4,7.8c0,2.7-0.5,5.5-1.5,8s-2.4,4.8-4.1,6.8c-1.8,2-4,3.6-6.4,4.7 C194.9,97.9,192.2,98.5,189.4,98.5z M179.2,77.2c0,1.6,0.2,3.2,0.7,4.7c0.4,1.5,1.1,2.8,2,4.1c0.8,1.2,1.9,2.1,3.2,2.8 c1.4,0.7,2.9,1.1,4.4,1.1c1.6,0,3.1-0.4,4.4-1.1c1.3-0.7,2.3-1.7,3.2-2.9c0.9-1.2,1.5-2.6,1.9-4.1s0.6-3.1,0.6-4.7s-0.2-3.2-0.7-4.7 c-0.4-1.4-1.1-2.8-2-4s-1.9-2.1-3.2-2.8c-2.8-1.4-6-1.4-8.8,0.1c-1.3,0.7-2.3,1.7-3.2,2.9c-0.9,1.2-1.5,2.6-1.9,4.1 C179.5,74,179.2,75.6,179.2,77.2z"></path> <path class="st1" d="M229.6,74.1v24h-9.7V56h7.6l19.6,24.7V56h9.7v42.1H249L229.6,74.1z"></path> <path class="st1" d="M265.5,98.1L281.7,56h7.9l16.1,42.1h-10.3l-3.3-9.4H279l-3.2,9.4H265.5z M285.6,66.4l-5,15.7h9.9L285.6,66.4z"></path> <path class="st1" d="M313.1,98.1V56h9.7v33.5h20.4V98L313.1,98.1z"></path> <g> <g> <path d="M102.8,26.4h-3.3c0.2-1.3,0.5-2.4,0.8-3.3c0.3-0.9,0.6-1.5,1-2l2,2.1c0.5-0.1,0.8-0.3,1.1-0.6c0.3-0.3,0.4-0.6,0.4-1 c0-0.5-0.2-0.8-0.7-1.2c-0.4-0.3-1-0.5-1.7-0.5c-1.3,0-2.5,0.6-3.6,1.7c-1.1,1.1-1.8,2.6-2.1,4.4L95,26.9l0,1.1l1.6-0.2l-1,7.4 c-0.3,1.9-0.5,3.2-0.7,4.1c-0.2,0.8-0.5,1.5-0.8,1.9l-2.6-1.4c-0.3,0.1-0.6,0.3-0.7,0.6c-0.2,0.3-0.3,0.6-0.3,0.9 c0,0.4,0.2,0.8,0.5,1.1c0.3,0.3,0.7,0.4,1.2,0.4c0.8,0,1.6-0.3,2.4-0.9c0.8-0.6,1.6-1.4,2.2-2.5c0.4-0.7,0.8-1.4,1.1-2.3 s0.5-1.9,0.7-3l0.9-6.3h3.5L102.8,26.4L102.8,26.4z M18.5,24.4c1.7,0,3.1,0.8,4,2.2l3.5-2c-1.4-2.6-4.3-4.1-7.5-4.1 c-5.2,0-8.9,3.6-8.9,8.7s3.7,8.7,8.9,8.7c3.2,0,5.8-1.4,7.3-3.7l-3.3-2.3c-1,1.4-2.4,2.2-4.1,2.2c-2.5,0-4.6-1.8-4.6-4.9 C13.9,26.3,15.8,24.4,18.5,24.4z M38.7,20.5c-5.2,0-8.9,3.7-8.9,8.7c0,5,3.7,8.7,8.9,8.7s8.9-3.7,8.9-8.7 C47.6,24.2,43.9,20.5,38.7,20.5z M38.7,34.1c-2.7,0-4.7-2-4.7-4.9s1.9-4.9,4.7-4.9s4.7,2,4.7,4.9S41.5,34.1,38.7,34.1z M77.6,30.9 h8.3v-3.6h-8.3v-2.9h8.8v-3.6H73.6v16.8h12.9V34h-8.9V30.9L77.6,30.9z M60,20.8h-7.2v16.8H60c5.3,0,8.7-3.4,8.7-8.4 C68.8,24.1,65.3,20.8,60,20.8z M60,33.9h-3.1v-9.4H60c3.1,0,4.6,1.9,4.6,4.7C64.6,31.9,63.1,33.9,60,33.9z M228.8,24.4 c1.7,0,3.1,0.8,4,2.2l3.5-2c-1.4-2.6-4.3-4.1-7.5-4.1c-5.2,0-8.9,3.6-8.9,8.7s3.7,8.7,8.9,8.7c3.2,0,5.8-1.4,7.3-3.7l-3.3-2.3 c-1,1.4-2.4,2.2-4.1,2.2c-2.5,0-4.6-1.8-4.6-4.9C224.1,26.3,226.1,24.4,228.8,24.4z M206.3,26.2c0-3.3-2.2-5.4-6.4-5.4h-7.3v16.8 h4v-6.3h0.6l4.4,6.3h4.8l-4.8-6.4C204.6,30.8,206.3,28.9,206.3,26.2z M196.6,28v-3.5h3.3c1.4,0,2.3,0.6,2.3,1.7 c0,1.2-0.9,1.8-2.3,1.8L196.6,28L196.6,28z M211.2,37.6h4V20.8h-4V37.6z M250.4,20.8h-4.8l-6.5,16.8h4.2l1.3-3.5h6.7l1.3,3.5h4.3 L250.4,20.8z M245.9,30.5l2-5.7l2,5.7H245.9z M178.4,30.9h8.3v-3.6h-8.3v-2.9h8.8v-3.6h-12.8v16.8h12.9V34h-8.9V30.9z M134.6,20.8 l-6.5,16.8h4.2l1.3-3.5h6.7l1.3,3.5h4.3l-6.5-16.8H134.6L134.6,20.8z M134.9,30.5l2-5.7l2,5.7H134.9z M123.9,25.8 c-0.6,0-1.2,0.3-1.9,0.8c-0.7,0.6-1.4,1.4-2.2,2.4l0.7-3.2h-0.8l-4.1,1v0.8l2,0.3l-1.9,9.7h3l0.9-5.6c0.2-1.1,0.5-2,1-2.7 c0.5-0.7,1.2-1.2,2.2-1.6l0.7,1.8h0c0.7,0,1.2-0.2,1.7-0.6c0.4-0.4,0.7-0.9,0.7-1.5c0-0.5-0.2-1-0.5-1.3 C124.8,26,124.4,25.8,123.9,25.8z M159.2,31.5l-3.8-10.7h-5.7v16.8h4V26.2l3.4,9.9h4.3l3.4-9.9v11.5h4V20.8h-5.7L159.2,31.5z M109.1,25.8c-0.9,0-1.7,0.2-2.5,0.5c-0.8,0.3-1.5,0.8-2.1,1.4c-0.7,0.7-1.2,1.5-1.5,2.4s-0.6,1.8-0.6,2.8c0,1.5,0.4,2.7,1.3,3.6 s2.1,1.4,3.6,1.4c0.9,0,1.7-0.2,2.5-0.5s1.5-0.8,2.1-1.4c0.7-0.7,1.2-1.5,1.5-2.4c0.4-0.9,0.5-1.9,0.5-2.8c0-1.5-0.4-2.7-1.3-3.6 C111.8,26.2,110.7,25.8,109.1,25.8z M110,34.9c-0.7,1.2-1.4,1.8-2.4,1.8c-0.7,0-1.2-0.3-1.5-0.8c-0.4-0.6-0.5-1.4-0.5-2.5 c0-1.8,0.3-3.3,1-4.5c0.6-1.2,1.4-1.8,2.3-1.8c0.7,0,1.2,0.3,1.6,0.8c0.4,0.6,0.5,1.4,0.5,2.6C110.9,32.2,110.6,33.7,110,34.9z"></path> </g> </g> </svg> 